<mxfile host="65bd71144e">
    <diagram id="GkPOfsNf1RGX2L8-j2IX" name="Page-1">
        <mxGraphModel dx="987" dy="827" grid="1" gridSize="10" guides="1" tooltips="1" connect="1" arrows="1" fold="1" page="1" pageScale="1" pageWidth="827" pageHeight="1169" math="0" shadow="0">
            <root>
                <mxCell id="0"/>
                <mxCell id="1" parent="0"/>
                <mxCell id="2" value="Overview" style="text;html=1;strokeColor=none;fillColor=none;align=center;verticalAlign=middle;whiteSpace=wrap;rounded=0;fontStyle=1;fontSize=24;" vertex="1" parent="1">
                    <mxGeometry x="40" y="40" width="150" height="40" as="geometry"/>
                </mxCell>
                <mxCell id="3" value="user" style="shape=umlActor;verticalLabelPosition=bottom;verticalAlign=top;html=1;outlineConnect=0;fontSize=24;" vertex="1" parent="1">
                    <mxGeometry x="60" y="292" width="30" height="60" as="geometry"/>
                </mxCell>
                <mxCell id="4" value="developer" style="shape=umlActor;verticalLabelPosition=bottom;verticalAlign=top;html=1;outlineConnect=0;fontSize=24;" vertex="1" parent="1">
                    <mxGeometry x="60" y="485" width="30" height="60" as="geometry"/>
                </mxCell>
                <mxCell id="6" value="Chain&lt;br style=&quot;font-size: 16px;&quot;&gt;Abstraction&lt;br style=&quot;font-size: 16px;&quot;&gt;SDK" style="whiteSpace=wrap;html=1;aspect=fixed;fontSize=16;fillColor=#60a917;strokeColor=#2D7600;fontColor=#ffffff;" vertex="1" parent="1">
                    <mxGeometry x="180" y="470" width="90" height="90" as="geometry"/>
                </mxCell>
                <mxCell id="7" value="Dapp" style="whiteSpace=wrap;html=1;aspect=fixed;fontSize=16;fillColor=#1ba1e2;fontColor=#ffffff;strokeColor=#006EAF;verticalAlign=top;" vertex="1" parent="1">
                    <mxGeometry x="290" y="240" width="190" height="190" as="geometry"/>
                </mxCell>
                <mxCell id="8" value="INTMAX&lt;br&gt;Wallet SDK" style="whiteSpace=wrap;html=1;aspect=fixed;fontSize=16;fillColor=#d80073;fontColor=#ffffff;strokeColor=#A50040;" vertex="1" parent="1">
                    <mxGeometry x="290" y="300" width="90" height="90" as="geometry"/>
                </mxCell>
                <mxCell id="9" value="Meta&lt;br&gt;transaction" style="whiteSpace=wrap;html=1;aspect=fixed;fontSize=16;fillColor=#a20025;fontColor=#ffffff;strokeColor=#6F0000;" vertex="1" parent="1">
                    <mxGeometry x="390" y="300" width="90" height="90" as="geometry"/>
                </mxCell>
                <mxCell id="10" value="ZetaChain" style="ellipse;shape=cloud;whiteSpace=wrap;html=1;fontSize=16;fillColor=#008a00;fontColor=#ffffff;strokeColor=#005700;" vertex="1" parent="1">
                    <mxGeometry x="560" y="268" width="200" height="140" as="geometry"/>
                </mxCell>
                <mxCell id="11" value="A Chain" style="ellipse;shape=cloud;whiteSpace=wrap;html=1;fontSize=16;fillColor=#fa6800;fontColor=#000000;strokeColor=#C73500;" vertex="1" parent="1">
                    <mxGeometry x="840" y="122" width="200" height="140" as="geometry"/>
                </mxCell>
                <mxCell id="12" value="B Chain" style="ellipse;shape=cloud;whiteSpace=wrap;html=1;fontSize=16;fillColor=#f0a30a;fontColor=#000000;strokeColor=#BD7000;" vertex="1" parent="1">
                    <mxGeometry x="840" y="262" width="200" height="140" as="geometry"/>
                </mxCell>
                <mxCell id="13" value="C Chain" style="ellipse;shape=cloud;whiteSpace=wrap;html=1;fontSize=16;fillColor=#e3c800;fontColor=#000000;strokeColor=#B09500;" vertex="1" parent="1">
                    <mxGeometry x="840" y="420" width="200" height="140" as="geometry"/>
                </mxCell>
                <mxCell id="14" value="" style="endArrow=classic;html=1;fontSize=16;exitX=0.5;exitY=0.5;exitDx=0;exitDy=0;exitPerimeter=0;" edge="1" parent="1" source="4" target="6">
                    <mxGeometry width="50" height="50" relative="1" as="geometry">
                        <mxPoint x="530" y="420" as="sourcePoint"/>
                        <mxPoint x="580" y="370" as="targetPoint"/>
                    </mxGeometry>
                </mxCell>
                <mxCell id="15" value="" style="endArrow=classic;html=1;fontSize=16;exitX=1;exitY=0.5;exitDx=0;exitDy=0;entryX=0.5;entryY=1;entryDx=0;entryDy=0;edgeStyle=orthogonalEdgeStyle;" edge="1" parent="1" source="6" target="7">
                    <mxGeometry width="50" height="50" relative="1" as="geometry">
                        <mxPoint x="530" y="420" as="sourcePoint"/>
                        <mxPoint x="580" y="370" as="targetPoint"/>
                    </mxGeometry>
                </mxCell>
                <mxCell id="17" value="" style="endArrow=classic;html=1;fontSize=16;entryX=0;entryY=0.25;entryDx=0;entryDy=0;exitX=0.5;exitY=0.5;exitDx=0;exitDy=0;exitPerimeter=0;" edge="1" parent="1" source="3" target="8">
                    <mxGeometry width="50" height="50" relative="1" as="geometry">
                        <mxPoint x="75" y="320" as="sourcePoint"/>
                        <mxPoint x="180" y="319.5" as="targetPoint"/>
                    </mxGeometry>
                </mxCell>
                <mxCell id="18" value="" style="endArrow=classic;html=1;fontSize=16;entryX=0.16;entryY=0.55;entryDx=0;entryDy=0;exitX=1;exitY=0.5;exitDx=0;exitDy=0;entryPerimeter=0;" edge="1" parent="1" source="9" target="10">
                    <mxGeometry width="50" height="50" relative="1" as="geometry">
                        <mxPoint x="460" y="430" as="sourcePoint"/>
                        <mxPoint x="675" y="430.5" as="targetPoint"/>
                    </mxGeometry>
                </mxCell>
                <mxCell id="19" value="SmartContract" style="rounded=0;whiteSpace=wrap;html=1;fontSize=16;fillColor=#647687;fontColor=#ffffff;strokeColor=#314354;" vertex="1" parent="1">
                    <mxGeometry x="880" y="206" width="120" height="20" as="geometry"/>
                </mxCell>
                <mxCell id="20" value="SmartContract" style="rounded=0;whiteSpace=wrap;html=1;fontSize=16;fillColor=#647687;fontColor=#ffffff;strokeColor=#314354;" vertex="1" parent="1">
                    <mxGeometry x="881" y="346" width="120" height="20" as="geometry"/>
                </mxCell>
                <mxCell id="21" value="SmartContract" style="rounded=0;whiteSpace=wrap;html=1;fontSize=16;fillColor=#647687;fontColor=#ffffff;strokeColor=#314354;" vertex="1" parent="1">
                    <mxGeometry x="880" y="505" width="120" height="20" as="geometry"/>
                </mxCell>
                <mxCell id="22" value="" style="endArrow=classic;html=1;fontSize=16;exitX=0.875;exitY=0.5;exitDx=0;exitDy=0;entryX=0.16;entryY=0.55;entryDx=0;entryDy=0;edgeStyle=orthogonalEdgeStyle;entryPerimeter=0;exitPerimeter=0;" edge="1" parent="1" source="10" target="13">
                    <mxGeometry width="50" height="50" relative="1" as="geometry">
                        <mxPoint x="280" y="525" as="sourcePoint"/>
                        <mxPoint x="395" y="440" as="targetPoint"/>
                        <Array as="points">
                            <mxPoint x="790" y="338"/>
                            <mxPoint x="790" y="497"/>
                        </Array>
                    </mxGeometry>
                </mxCell>
                <mxCell id="23" value="" style="endArrow=classic;html=1;fontSize=16;entryX=0.16;entryY=0.55;entryDx=0;entryDy=0;edgeStyle=orthogonalEdgeStyle;entryPerimeter=0;exitX=0.875;exitY=0.5;exitDx=0;exitDy=0;exitPerimeter=0;" edge="1" parent="1" source="10" target="11">
                    <mxGeometry width="50" height="50" relative="1" as="geometry">
                        <mxPoint x="740" y="340" as="sourcePoint"/>
                        <mxPoint x="882" y="507" as="targetPoint"/>
                        <Array as="points">
                            <mxPoint x="790" y="338"/>
                            <mxPoint x="790" y="200"/>
                        </Array>
                    </mxGeometry>
                </mxCell>
                <mxCell id="24" value="" style="endArrow=classic;html=1;fontSize=16;entryX=0.16;entryY=0.55;entryDx=0;entryDy=0;exitX=0.875;exitY=0.5;exitDx=0;exitDy=0;entryPerimeter=0;exitPerimeter=0;" edge="1" parent="1" source="10" target="12">
                    <mxGeometry width="50" height="50" relative="1" as="geometry">
                        <mxPoint x="490" y="355" as="sourcePoint"/>
                        <mxPoint x="602" y="355" as="targetPoint"/>
                    </mxGeometry>
                </mxCell>
                <mxCell id="25" value="send message" style="text;html=1;strokeColor=none;fillColor=none;align=center;verticalAlign=middle;whiteSpace=wrap;rounded=0;fontSize=16;" vertex="1" parent="1">
                    <mxGeometry x="660" y="240" width="120" height="30" as="geometry"/>
                </mxCell>
                <mxCell id="26" value="send message" style="text;html=1;strokeColor=none;fillColor=none;align=center;verticalAlign=middle;whiteSpace=wrap;rounded=0;fontSize=16;" vertex="1" parent="1">
                    <mxGeometry x="660" y="430" width="120" height="30" as="geometry"/>
                </mxCell>
                <mxCell id="27" value="send Tx" style="text;html=1;strokeColor=none;fillColor=none;align=center;verticalAlign=middle;whiteSpace=wrap;rounded=0;fontSize=16;" vertex="1" parent="1">
                    <mxGeometry x="490" y="290" width="80" height="30" as="geometry"/>
                </mxCell>
                <mxCell id="28" value="Access" style="text;html=1;strokeColor=none;fillColor=none;align=center;verticalAlign=middle;whiteSpace=wrap;rounded=0;fontSize=16;" vertex="1" parent="1">
                    <mxGeometry x="140" y="280" width="80" height="30" as="geometry"/>
                </mxCell>
                <mxCell id="29" value="Build" style="text;html=1;strokeColor=none;fillColor=none;align=center;verticalAlign=middle;whiteSpace=wrap;rounded=0;fontSize=16;" vertex="1" parent="1">
                    <mxGeometry x="360" y="525" width="80" height="30" as="geometry"/>
                </mxCell>
            </root>
        </mxGraphModel>
    </diagram>
</mxfile>